<?xml version="1.0" encoding="UTF-8" standalone="no"?>
<!-- Created with Inkscape (http://www.inkscape.org/) -->

<svg
     width="100"
     height="100"
     viewBox="0 0 100 100"
     version="1.1"
     id="svg5"
     sodipodi:docname="0010.svg"
     inkscape:version="1.2.1 (9c6d41e410, 2022-07-14)"
     xml:space="preserve"
     inkscape:export-filename="0010.png"
     inkscape:export-xdpi="96"
     inkscape:export-ydpi="96"
     xmlns:inkscape="http://www.inkscape.org/namespaces/inkscape"
     xmlns:sodipodi="http://sodipodi.sourceforge.net/DTD/sodipodi-0.dtd"
     xmlns="http://www.w3.org/2000/svg"
     xmlns:svg="http://www.w3.org/2000/svg"><sodipodi:namedview
         id="namedview7"
         pagecolor="#ffffff"
         bordercolor="#666666"
         borderopacity="1.0"
         inkscape:showpageshadow="2"
         inkscape:pageopacity="0.0"
         inkscape:pagecheckerboard="0"
         inkscape:deskcolor="#d1d1d1"
         inkscape:document-units="px"
         showgrid="false"
         inkscape:zoom="4.1777"
         inkscape:cx="56.61"
         inkscape:cy="57.687"
         inkscape:window-width="1920"
         inkscape:window-height="1009"
         inkscape:window-x="-8"
         inkscape:window-y="-8"
         inkscape:window-maximized="1"
         inkscape:current-layer="layer1" /><defs
         id="defs2" /><g
         inkscape:label="Layer 1"
         inkscape:groupmode="layer"
         id="layer1"><g
             id="g1398"><path
                 style="fill:black;stroke-width:0.333333"
                 d="m 22.589,84.36 -1.089,-0.973 -0.09,-29.534 c -0.1,-32.47 -0.189,-30.928 1.911,-32.014 0.774,-0.4 2.304,-0.506 7.328,-0.506 h 6.35 v 2.5 2.5 h -5.337 -5.336 l 0.09,15.917 0.09,15.917 h 23.5 23.5 l 0.09,-15.917 0.09,-15.917 h -5.336 -5.337 v -2.5 -2.5 h 6.35 c 5.023,0 6.553,0.106 7.327,0.506 2.1,1.086 2.01,-0.456 1.913,32.014 l -0.09,29.534 -1.09,0.973 -1.087,0.973 h -26.323 -26.323 z m 19.228,-6.5 c 1.003,-0.417 2.483,-2.027 2.146,-2.327 -0.07,-0.06 -0.62,-0.366 -1.223,-0.67 -0.987,-0.503 -1.16,-0.506 -1.823,-0.04 -0.404,0.283 -0.977,0.513 -1.28,0.513 -0.894,0 -2.2,-1.24 -2.41,-2.283 -0.264,-1.313 0.326,-3.3 1.1,-3.713 0.91,-0.487 2.193,-0.414 2.666,0.153 0.354,0.427 0.57,0.407 1.707,-0.173 1.51,-0.77 1.563,-0.96 0.55,-1.884 -1.23,-1.12 -2.107,-1.433 -4.013,-1.433 -2.13,0 -3.66,0.867 -4.72,2.667 -1.024,1.746 -0.964,5.383 0.116,7.123 1.38,2.217 4.61,3.147 7.184,2.07 z m 11.04,0 c 2.14,-0.897 2.73,-3.993 1.09,-5.737 -0.39,-0.413 -1.66,-1.07 -2.824,-1.456 -2.33,-0.777 -2.713,-1.11 -2.11,-1.834 0.507,-0.613 1.67,-0.626 2.494,-0.03 0.346,0.253 0.79,0.41 0.98,0.343 2.283,-0.786 2.236,-0.743 1.673,-1.603 -0.703,-1.073 -2.243,-1.667 -4.25,-1.637 -2.893,0.04 -4.663,2.054 -3.937,4.474 0.414,1.383 0.88,1.743 3.694,2.823 1.516,0.58 1.833,0.84 1.833,1.503 0,1.137 -1.91,1.324 -3.01,0.294 -0.7,-0.66 -0.87,-0.687 -1.963,-0.29 -0.657,0.236 -1.194,0.606 -1.194,0.816 0,0.507 1.647,2.15 2.5,2.5 1.087,0.444 3.767,0.35 5.024,-0.173 z m 10.466,-1.93 c 0.394,-1.33 1.164,-3.843 1.707,-5.583 0.543,-1.74 1.07,-3.437 1.173,-3.77 0.167,-0.534 0,-0.59 -1.573,-0.5 l -1.763,0.103 -0.854,2.893 c -0.473,1.594 -0.93,2.967 -1.02,3.054 -0.09,0.09 -0.596,-1.254 -1.13,-2.977 l -0.97,-3.137 h -1.613 c -0.887,0 -1.613,0.1 -1.613,0.217 0,0.307 3.373,11.563 3.556,11.867 0.08,0.136 0.877,0.25 1.764,0.25 h 1.616 z m -20.78,-36.577 -7.043,-6.994 h 3.25 3.25 v -8.834 -8.833 h 8 8 v 8.833 8.834 h 3.25 3.25 l -7.043,6.994 c -3.874,3.847 -7.23,6.994 -7.457,6.994 -0.227,0 -3.583,-3.147 -7.457,-6.994 z"
                 id="path1400" /></g><rect
             style="fill:black;fill-opacity:1;stroke-linejoin:round;stroke-miterlimit:3.8;stop-color:black"
             id="rect351"
             width="51.942"
             height="20.107"
             x="24.415"
             y="61.278" /><text
             xml:space="preserve"
             style="font-size:14px;line-height:1.25;font-family:Consolas;-inkscape-font-specification:'Consolas, Normal';font-variant-ligatures:none;fill:white;fill-opacity:1"
             x="27.048"
             y="74.921"
             id="text2036"><tspan
                 sodipodi:role="line"
                 id="tspan2034"
                 x="27.048"
                 y="74.921">import</tspan></text></g></svg>
