<?xml version="1.0" encoding="UTF-8" standalone="no"?>
<!-- Created with Inkscape (http://www.inkscape.org/) -->

<svg
   width="100"
   height="100"
   viewBox="0 0 100 100"
   version="1.1"
   id="svg5"
   inkscape:version="1.2 (dc2aedaf03, 2022-05-15)"
   sodipodi:docname="0100.svg"
   inkscape:export-filename="0100.png"
   inkscape:export-xdpi="96"
   inkscape:export-ydpi="96"
   xmlns:inkscape="http://www.inkscape.org/namespaces/inkscape"
   xmlns:sodipodi="http://sodipodi.sourceforge.net/DTD/sodipodi-0.dtd"
   xmlns="http://www.w3.org/2000/svg"
   xmlns:svg="http://www.w3.org/2000/svg">
  <sodipodi:namedview
     id="namedview7"
     pagecolor="#ffffff"
     bordercolor="#000000"
     borderopacity="0.25"
     inkscape:showpageshadow="2"
     inkscape:pageopacity="0.0"
     inkscape:pagecheckerboard="0"
     inkscape:deskcolor="#d1d1d1"
     inkscape:document-units="px"
     showgrid="false"
     inkscape:zoom="4.1776836"
     inkscape:cx="47.753736"
     inkscape:cy="40.45304"
     inkscape:window-width="1920"
     inkscape:window-height="1009"
     inkscape:window-x="-8"
     inkscape:window-y="-8"
     inkscape:window-maximized="1"
     inkscape:current-layer="layer1" />
  <defs
     id="defs2">
    <filter
       inkscape:collect="always"
       style="color-interpolation-filters:sRGB"
       id="filter4943"
       x="-0.0060659857"
       y="-0.015191374"
       width="1.012132"
       height="1.0303827">
      <feGaussianBlur
         inkscape:collect="always"
         stdDeviation="0.17227095"
         id="feGaussianBlur4945" />
    </filter>
  </defs>
  <g
     inkscape:label="Layer 1"
     inkscape:groupmode="layer"
     id="layer1">
    <text
       xml:space="preserve"
       style="font-style:normal;font-variant:normal;font-weight:normal;font-stretch:normal;font-size:37.3333px;font-family:'DejaVu Sans';-inkscape-font-specification:'DejaVu Sans, Normal';font-variant-ligatures:normal;font-variant-caps:normal;font-variant-numeric:normal;font-variant-east-asian:normal;opacity:0.351852;mix-blend-mode:normal;fill:#3100c3;fill-opacity:1;stroke:none;stroke-width:0.3;filter:url(#filter4943)"
       x="7.2575564"
       y="43.289581"
       id="text4345-3"
       transform="matrix(1.0840272,0,0,1.0840272,3.7774873,-3.1933403)"><tspan
         sodipodi:role="line"
         id="tspan4343-8"
         x="7.2575564"
         y="43.289581">PHP</tspan></text>
    <text
       xml:space="preserve"
       style="font-style:normal;font-variant:normal;font-weight:normal;font-stretch:normal;font-size:40.4703px;font-family:'DejaVu Sans';-inkscape-font-specification:'DejaVu Sans, Normal';font-variant-ligatures:normal;font-variant-caps:normal;font-variant-numeric:normal;font-variant-east-asian:normal;fill:#3100c3;fill-opacity:1;stroke:none;stroke-width:0.325209"
       x="9.7455378"
       y="42.475216"
       id="text4345"><tspan
         sodipodi:role="line"
         id="tspan4343"
         x="9.7455378"
         y="42.475216"
         style="stroke-width:0.325209">PHP</tspan></text>
    <path
       sodipodi:type="star"
       style="opacity:0.351852;fill:#3100c3;fill-opacity:1;stroke:none;stroke-width:0.3"
       id="path6451"
       inkscape:flatsided="false"
       sodipodi:sides="20"
       sodipodi:cx="41.171143"
       sodipodi:cy="60.320511"
       sodipodi:r1="14.734207"
       sodipodi:r2="4.4202619"
       sodipodi:arg1="0.78539816"
       sodipodi:arg2="0.9424778"
       inkscape:rounded="5"
       inkscape:randomized="0"
       d="M 51.5898,70.739169 C 14.850659,107.47831 85.803397,33.357024 43.769307,63.896578 1.7352179,94.436132 94.154352,49.860805 47.860333,73.448786 1.5663137,97.036766 91.951114,48.468836 42.537079,64.52443 -6.8769572,80.580023 94.793396,66.745451 43.47608,74.873315 -7.8412349,83.00118 93.128135,64.740773 41.171143,64.740773 c -51.956992,0 49.012377,18.260407 -2.304938,10.132542 C -12.45111,66.745451 89.219242,80.580023 39.805207,64.52443 -9.6088294,48.468836 80.775971,97.036767 34.481953,73.448786 -11.812066,49.860805 80.607068,94.436131 38.572978,63.896578 -3.4611118,33.357024 67.491626,107.47831 30.752485,70.739169 -5.9866565,34.000027 68.134629,104.95277 37.595076,62.918676 7.0555218,20.884586 51.630848,113.30372 28.042868,67.009701 4.4548873,20.715682 53.022817,111.10048 36.967224,61.686447 20.91163,12.272411 34.746202,113.94276 26.618338,62.625449 18.490474,11.308133 36.750881,112.2775 36.750881,60.320511 36.750881,8.3635188 18.490474,109.33289 26.618338,58.015573 34.746202,6.6982578 20.91163,108.36861 36.967224,58.954575 53.022817,9.5405389 4.4548869,99.92534 28.042868,53.631321 51.630849,7.337302 7.0555221,99.756436 37.595076,57.722346 68.134629,15.688256 -5.9866568,86.640994 30.752485,49.901853 67.491626,13.162712 -3.4611116,87.283998 38.572978,56.744444 80.607067,26.20489 -11.812067,70.780217 34.481952,47.192236 80.775971,23.604256 -9.6088293,72.172186 39.805207,56.116592 89.219242,40.060998 -12.451111,53.89557 38.866205,45.767706 90.18352,37.639842 -10.78585,55.900249 41.171143,55.900249 c 51.956992,0 -49.0123779,-18.260407 2.304937,-10.132543 C 94.793396,53.895571 -6.8769573,40.060999 42.537079,56.116592 91.951115,72.172185 1.5663138,23.604255 47.860333,47.192236 94.154351,70.780217 1.7352176,26.20489 43.769307,56.744444 85.803397,87.283997 14.850659,13.162711 51.5898,49.901853 88.328942,86.640995 14.207656,15.688257 44.74721,57.722346 75.286763,99.756436 30.711437,7.3373018 54.299417,53.631321 77.887398,99.92534 29.319468,9.540539 45.375061,58.954575 61.430655,108.36861 47.596083,6.6982577 55.723947,58.015573 63.851811,109.33289 45.591404,8.3635188 45.591404,60.320511 45.591405,112.2775 63.851812,11.308133 55.723947,62.625449 47.596083,113.94276 61.430655,12.272411 45.375061,61.686447 29.319468,111.10048 77.887398,20.715682 54.299417,67.009701 30.711436,113.30372 75.286763,20.884586 44.74721,62.918676 14.207656,104.95277 88.328942,34.000027 51.5898,70.739169 Z"
       transform="translate(9.3353168,11.968355)" />
  </g>
</svg>
