<?xml version="1.0" encoding="UTF-8" standalone="no"?>
<!-- Created with Inkscape (http://www.inkscape.org/) -->

<svg
     width="100"
     height="100"
     viewBox="0 0 100 100"
     version="1.1"
     id="svg5"
     sodipodi:docname="0011.svg"
     inkscape:version="1.2.1 (9c6d41e410, 2022-07-14)"
     xml:space="preserve"
     inkscape:export-filename="0011.png"
     inkscape:export-xdpi="96"
     inkscape:export-ydpi="96"
     xmlns:inkscape="http://www.inkscape.org/namespaces/inkscape"
     xmlns:sodipodi="http://sodipodi.sourceforge.net/DTD/sodipodi-0.dtd"
     xmlns="http://www.w3.org/2000/svg"
     xmlns:svg="http://www.w3.org/2000/svg"><sodipodi:namedview
         id="namedview7"
         pagecolor="#ffffff"
         bordercolor="#666666"
         borderopacity="1.0"
         inkscape:showpageshadow="2"
         inkscape:pageopacity="0.0"
         inkscape:pagecheckerboard="0"
         inkscape:deskcolor="#d1d1d1"
         inkscape:document-units="px"
         showgrid="false"
         inkscape:zoom="5.9082"
         inkscape:cx="31.566"
         inkscape:cy="60.763"
         inkscape:window-width="1920"
         inkscape:window-height="1009"
         inkscape:window-x="-8"
         inkscape:window-y="-8"
         inkscape:window-maximized="1"
         inkscape:current-layer="layer1" /><defs
         id="defs2" /><g
         inkscape:label="Layer 1"
         inkscape:groupmode="layer"
         id="layer1"><g
             id="g1493"><path
                 style="fill:#e9e9e9;stroke-width:0.333333"
                 d="m 35.29,76.417 c -0.413,-0.53 -0.403,-0.54 0.127,-0.127 0.32,0.253 0.583,0.513 0.583,0.583 0,0.277 -0.273,0.1 -0.71,-0.456 z m 3.98,-0.977 c 0.24,-0.1 0.53,-0.09 0.64,0.03 0.11,0.11 -0.09,0.187 -0.437,0.174 -0.39,0 -0.47,-0.09 -0.203,-0.2 z m 0,-7 c 0.24,-0.1 0.53,-0.09 0.64,0.03 0.11,0.11 -0.09,0.187 -0.437,0.174 -0.39,0 -0.47,-0.09 -0.203,-0.2 z m -4.27,-0.567 c 0,-0.07 0.263,-0.33 0.583,-0.583 0.53,-0.413 0.54,-0.403 0.127,0.127 -0.437,0.556 -0.71,0.733 -0.71,0.456 z m -8.505,-25.873 v -15.833 l 2.5,-0.02 2.5,-0.02 -2.414,0.118 -2.413,0.118 -0.09,15.736 -0.09,15.736 v -15.833 z m 46.918,0.1 -0.08,-15.736 -2.583,-0.113 -2.583,-0.114 2.593,-0.07 c 1.82,-0.05 2.643,0.06 2.753,0.35 0.09,0.229 0.12,7.39 0.07,15.916 l -0.09,15.5 z m -31.933,-3.93 c 0,-4.95 0.05,-7.022 0.103,-4.604 0.06,2.417 0.06,6.467 0,9 -0.06,2.534 -0.103,0.554 -0.103,-4.396 z m 17,0 c 0,-4.95 0.05,-7.022 0.103,-4.604 0.06,2.417 0.06,6.467 0,9 -0.06,2.534 -0.103,0.554 -0.103,-4.396 z m -17.147,-15.667 c 1.18,-1.192 2.224,-2.167 2.314,-2.167 0.09,0 -0.8,0.975 -1.98,2.167 -1.18,1.192 -2.224,2.167 -2.314,2.167 -0.09,0 0.8,-0.975 1.98,-2.167 z m 16.99,-0.08 -2.156,-2.25 2.25,2.157 c 2.09,2.003 2.403,2.343 2.156,2.343 -0.05,0 -1.063,-1.013 -2.25,-2.25 z m -30.906,-1.999 c 1.787,-0.06 4.712,-0.06 6.5,0 1.786,0.06 0.323,0.109 -3.25,0.109 -3.575,0 -5.038,-0.05 -3.25,-0.109 z m 38.666,0 c 1.787,-0.06 4.714,-0.06 6.5,0 1.787,0.06 0.324,0.109 -3.25,0.109 -3.573,0 -5.036,-0.05 -3.25,-0.109 z"
                 id="path1507" /><path
                 style="fill:#d0d0d0;stroke-width:0.333333"
                 d="m 79.113,79.667 c 0,-1.377 0.06,-1.937 0.13,-1.25 0.07,0.686 0.07,1.813 0,2.5 -0.07,0.686 -0.13,0.123 -0.13,-1.25 z m -42.113,-52.834 c 1.18,-1.191 2.223,-2.166 2.313,-2.166 0.09,0 -0.8,0.975 -1.98,2.166 -1.18,1.192 -2.223,2.167 -2.313,2.167 -0.09,0 0.8,-0.975 1.98,-2.167 z m 25.657,-0.08 -2.157,-2.25 2.25,2.157 c 2.09,2.004 2.403,2.343 2.157,2.343 -0.05,0 -1.064,-1.012 -2.25,-2.25 z"
                 id="path1505" /><path
                 style="fill:#b4b4b4;stroke-width:0.333333"
                 d="m 20.826,53.167 c 0,-15.95 0.04,-22.524 0.09,-14.61 0.05,7.916 0.05,20.966 0,29 -0.05,8.036 -0.09,1.56 -0.09,-14.39 z m 58.334,-2.334 c 0,-14.666 0.04,-20.618 0.09,-13.226 0.05,7.393 0.05,19.393 0,26.666 -0.05,7.277 -0.09,1.227 -0.09,-13.44 z m -42.44,21.167 c 0,-0.46 0.07,-0.647 0.167,-0.417 0.09,0.23 0.09,0.604 0,0.834 -0.09,0.23 -0.167,0.04 -0.167,-0.417 z m -2.387,-48.833 c 0.624,-0.642 1.207,-1.167 1.297,-1.167 0.09,0 -0.34,0.525 -0.963,1.167 -0.624,0.641 -1.207,1.166 -1.297,1.166 -0.09,0 0.34,-0.525 0.963,-1.166 z m 30.984,-0.08 -1.15,-1.25 1.25,1.149 c 1.163,1.069 1.403,1.351 1.15,1.351 -0.06,0 -0.62,-0.562 -1.25,-1.25 z"
                 id="path1503" /><path
                 style="fill:#959595;stroke-width:0.333333"
                 d="m 46.29,76.75 c -0.413,-0.53 -0.403,-0.54 0.127,-0.127 0.32,0.254 0.583,0.514 0.583,0.584 0,0.276 -0.273,0.1 -0.71,-0.457 z m 3.647,-10.977 c 0.24,-0.1 0.53,-0.09 0.64,0.03 0.11,0.11 -0.09,0.186 -0.437,0.173 -0.39,0 -0.47,-0.09 -0.203,-0.2 z m -4.187,-18.69 c 2.337,-0.06 6.163,-0.06 8.5,0 2.337,0.06 0.427,0.107 -4.25,0.107 -4.677,0 -6.587,-0.05 -4.25,-0.107 z m -10.083,-25.209 c 0,-0.07 0.263,-0.332 0.583,-0.583 0.53,-0.415 0.54,-0.403 0.127,0.126 -0.437,0.555 -0.71,0.731 -0.71,0.457 z m 27.956,-0.457 c -0.413,-0.529 -0.403,-0.541 0.127,-0.126 0.557,0.435 0.733,0.709 0.457,0.709 -0.07,0 -0.33,-0.262 -0.584,-0.583 z"
                 id="path1501" /><path
                 style="fill:#6e6e6e;stroke-width:0.333333"
                 d="m 38.917,78.113 c 0.23,-0.09 0.603,-0.09 0.833,0 0.23,0.09 0.04,0.167 -0.417,0.167 -0.46,0 -0.646,-0.07 -0.416,-0.167 z m 21.333,-0.03 c 0.413,-0.08 1.087,-0.08 1.5,0 0.413,0.08 0.07,0.147 -0.75,0.147 -0.823,0 -1.163,-0.07 -0.75,-0.147 z m -4.28,-12.2 c 0.153,-0.153 0.857,-0.223 1.57,-0.163 l 1.293,0.113 -1.566,0.16 c -0.864,0.09 -1.447,0.04 -1.297,-0.11 z m 7.947,-0.133 c 0.413,-0.08 1.086,-0.08 1.5,0 0.413,0.08 0.07,0.146 -0.75,0.146 -0.824,0 -1.164,-0.07 -0.75,-0.146 z m -25.834,-8.014 c 6.554,-0.05 17.28,-0.05 23.834,0 6.553,0.05 1.19,0.09 -11.917,0.09 -13.11,0 -18.471,-0.04 -11.917,-0.09 z m -1.5,-28.662 c 0.964,-0.07 2.537,-0.07 3.5,0 0.964,0.07 0.177,0.122 -1.75,0.122 -1.926,0 -2.713,-0.05 -1.75,-0.122 z m 23.334,0 c 0.963,-0.07 2.536,-0.07 3.5,0 0.963,0.07 0.176,0.122 -1.75,0.122 -1.927,0 -2.714,-0.05 -1.75,-0.122 z m -12.167,-12.588 2.25,-2.327 2.25,2.327 2.25,2.327 -2.25,-2.154 -2.25,-2.153 -2.25,2.153 -2.25,2.154 z"
                 id="path1499" /><path
                 style="fill:#4e4e4e;stroke-width:0.333333"
                 d="m 54.72,74.333 c 0,-0.46 0.07,-0.646 0.167,-0.416 0.09,0.23 0.09,0.603 0,0.833 -0.09,0.23 -0.167,0.04 -0.167,-0.417 z m -17.387,-4.46 c 0,-0.07 0.264,-0.33 0.584,-0.583 0.53,-0.413 0.54,-0.403 0.126,0.127 -0.436,0.556 -0.71,0.733 -0.71,0.456 z m 8.387,-0.54 c 0,-0.46 0.07,-0.646 0.167,-0.416 0.09,0.23 0.09,0.603 0,0.833 -0.09,0.23 -0.167,0.04 -0.167,-0.417 z m -3.387,-47.5 c 1.734,-1.741 3.23,-3.166 3.32,-3.166 0.09,0 -1.253,1.425 -2.986,3.166 -1.734,1.742 -3.23,3.167 -3.32,3.167 -0.09,0 1.253,-1.425 2.986,-3.167 z m 14.994,-0.08 -3.16,-3.25 3.25,3.16 c 1.786,1.738 3.25,3.201 3.25,3.25 0,0.242 -0.404,-0.141 -3.34,-3.16 z"
                 id="path1497" /><path
                 style="fill:black;stroke-width:0.333333"
                 d="m 23.423,85.173 c -0.592,-0.256 -1.379,-0.963 -1.749,-1.57 -0.66,-1.083 -0.671,-1.61 -0.668,-30.436 0,-22.62 0.1,-29.517 0.416,-30.135 0.226,-0.441 0.834,-1.116 1.351,-1.5 0.868,-0.645 1.448,-0.706 7.5,-0.798 l 6.56,-0.1 -2.66,2.683 -2.657,2.683 h -2.592 -2.591 v 16 16 h 23.667 23.667 v -16 -16 h -2.59 -2.594 l -2.656,-2.683 -2.66,-2.683 6.56,0.1 c 6.053,0.09 6.633,0.153 7.5,0.798 0.516,0.384 1.126,1.059 1.353,1.5 0.317,0.618 0.41,7.515 0.413,30.135 0,28.836 0,29.353 -0.67,30.436 -1.296,2.13 -0.373,2.064 -28.396,2.05 -21.077,0 -25.611,-0.09 -26.504,-0.48 z m 17.554,-7.166 c 1.04,-0.297 3.023,-1.834 3.023,-2.34 0,-0.117 -0.517,-0.457 -1.147,-0.757 -1.026,-0.49 -1.25,-0.493 -2.143,-0.05 -2.01,1.003 -3.71,-0.387 -3.71,-3.037 0,-0.89 0.257,-1.463 0.973,-2.183 1.107,-1.107 1.477,-1.17 2.804,-0.477 0.84,0.44 1.06,0.434 2,-0.04 0.58,-0.297 1.12,-0.597 1.2,-0.667 0.08,-0.07 -0.29,-0.576 -0.82,-1.13 -2.504,-2.613 -7.207,-1.833 -8.8,1.46 -1.566,3.237 -0.504,7.304 2.296,8.784 1.587,0.836 2.584,0.94 4.324,0.44 z m 11.45,-0.127 c 1.653,-0.7 2.336,-1.673 2.373,-3.373 0.04,-1.93 -0.927,-2.944 -3.83,-3.99 -2.297,-0.834 -2.897,-1.647 -1.577,-2.147 0.517,-0.197 1.154,-0.137 1.927,0.18 0.907,0.373 1.35,0.393 2.083,0.09 1.16,-0.48 1.18,-1.06 0.06,-1.937 -1.82,-1.43 -4.784,-1.303 -6.557,0.283 -0.867,0.774 -1.06,1.2 -1.06,2.317 0,1.747 0.997,2.797 3.463,3.633 1.927,0.654 2.59,1.3 2.25,2.187 -0.303,0.797 -2.186,0.703 -3.1,-0.153 -0.663,-0.627 -0.876,-0.66 -1.936,-0.31 -1.394,0.46 -1.434,0.613 -0.47,1.836 1.35,1.72 4.146,2.327 6.37,1.387 z m 10.93,-1.963 c 0.396,-1.33 1.226,-4.067 1.846,-6.084 0.62,-2.016 1.13,-3.78 1.13,-3.916 0,-0.137 -0.73,-0.25 -1.62,-0.25 h -1.616 l -0.957,3.306 c -0.523,1.82 -1.043,3.254 -1.153,3.187 -0.11,-0.07 -0.624,-1.557 -1.14,-3.31 l -0.94,-3.183 h -1.62 c -0.89,0 -1.62,0.07 -1.62,0.166 0,0.09 0.823,2.88 1.833,6.197 1.01,3.317 1.833,6.093 1.833,6.167 0,0.08 0.744,0.136 1.654,0.136 h 1.653 z m -21.69,-37.917 v -9 h -3.187 -3.19 l 7.233,-7.083 c 3.977,-3.896 7.34,-7.084 7.477,-7.084 0.137,0 3.5,3.188 7.477,7.084 l 7.233,7.083 h -3.19 -3.187 v 9 9 h -8.333 -8.333 z"
                 id="path1495" /></g><rect
             style="fill:black;stroke-linejoin:round;stroke-miterlimit:3.8;stop-color:black;fill-opacity:1"
             id="rect344"
             width="48.915"
             height="20.48"
             x="26.743"
             y="61.44" /><text
             xml:space="preserve"
             style="font-size:14px;line-height:1.25;font-family:Consolas;-inkscape-font-specification:'Consolas, Normal';font-variant-ligatures:none;fill:white;fill-opacity:1"
             x="27.927"
             y="74.643"
             id="text1422"><tspan
                 sodipodi:role="line"
                 id="tspan1420"
                 x="27.927"
                 y="74.643">export</tspan></text></g></svg>
