<?xml version="1.0" encoding="UTF-8" standalone="no"?>
<!-- Created with Inkscape (http://www.inkscape.org/) -->

<svg
   width="600"
   height="400"
   viewBox="0 0 600 400"
   version="1.1"
   id="svg20"
   inkscape:version="1.2 (dc2aedaf03, 2022-05-15)"
   sodipodi:docname="loop.svg"
   xml:space="preserve"
   inkscape:export-filename="loop.png"
   inkscape:export-xdpi="96"
   inkscape:export-ydpi="96"
   xmlns:inkscape="http://www.inkscape.org/namespaces/inkscape"
   xmlns:sodipodi="http://sodipodi.sourceforge.net/DTD/sodipodi-0.dtd"
   xmlns="http://www.w3.org/2000/svg"
   xmlns:svg="http://www.w3.org/2000/svg"><sodipodi:namedview
     id="namedview22"
     pagecolor="#ffffff"
     bordercolor="#000000"
     borderopacity="0.25"
     inkscape:showpageshadow="2"
     inkscape:pageopacity="0.0"
     inkscape:pagecheckerboard="0"
     inkscape:deskcolor="#d1d1d1"
     inkscape:document-units="px"
     showgrid="false"
     inkscape:zoom="1.4770342"
     inkscape:cx="213.94223"
     inkscape:cy="201.75565"
     inkscape:window-width="1920"
     inkscape:window-height="1009"
     inkscape:window-x="-8"
     inkscape:window-y="-8"
     inkscape:window-maximized="1"
     inkscape:current-layer="g1166" /><defs
     id="defs17" /><g
     inkscape:label="Layer 1"
     inkscape:groupmode="layer"
     id="layer1"><g
       id="g1166"
       transform="translate(-9.4784533,13.202131)"><path
         id="rect2454"
         style="opacity:0.637566"
         d="m 212.58816,45.022655 h 213.2652 c 3.75076,0 6.77033,3.019565 6.77033,6.770324 v 41.976008 c 0,3.750759 -3.01957,6.770323 -6.77033,6.770323 h -213.2652 c -2.08949,0 -19.60843,17.59666 -20.84845,16.11809 -0.98588,-1.17556 14.07813,-21.227144 14.07813,-22.888413 V 51.792979 c 0,-3.750759 3.01956,-6.770324 6.77032,-6.770324 z"
         sodipodi:nodetypes="ssssssssss" /><g
         id="g1910"
         transform="matrix(0,0.81594965,0.50310627,0,43.084205,79.074478)"><path
           style="fill:#cccccc"
           d="m 88.324792,307.5905 -2.424314,-2.75 2.75,2.42431 c 2.570289,2.26589 3.208588,3.07569 2.424314,3.07569 -0.179127,0 -1.416627,-1.2375 -2.75,-2.75 z m 114.075688,0.25 c 1.29175,-1.375 2.57363,-2.5 2.84863,-2.5 0.275,0 -0.55688,1.125 -1.84863,2.5 -1.29175,1.375 -2.57363,2.5 -2.84863,2.5 -0.275,0 0.55688,-1.125 1.84863,-2.5 z m 13.4866,-42.75 -13.9866,-14.25 14.46524,14 c 7.95588,7.7 14.66838,14.1125 14.91666,14.25 0.24829,0.1375 0.0329,0.25 -0.47863,0.25 -0.51154,0 -7.22404,-6.4125 -14.91667,-14.25 z M 74.830125,236.33116 C 67.091431,228.63629 61.02246,222.3405 61.343522,222.3405 c 0.321063,0 6.871693,6.3 14.556956,14 7.685263,7.7 13.754234,13.9958 13.486603,13.99066 -0.267632,-0.005 -6.818262,-6.30514 -14.556956,-14 z m 11.570353,-40.30357 c 0,-0.1721 1.4625,-1.6346 3.25,-3.25 l 3.25,-2.93709 -2.937091,3.25 c -2.737781,3.02945 -3.562909,3.70965 -3.562909,2.93709 z m 115.924312,-2.43709 -2.42431,-2.75 2.75,2.42431 c 2.57029,2.26589 3.20859,3.07569 2.42431,3.07569 -0.17912,0 -1.41662,-1.2375 -2.75,-2.75 z"
           id="path1922" /><path
           style="fill:#a9a9a9"
           d="m 38.686991,250.60042 c 3.182582,-0.19905 8.132582,-0.1972 11,0.004 2.867418,0.20131 0.263487,0.36417 -5.786513,0.36191 -6.05,-0.002 -8.396069,-0.16696 -5.213487,-0.36601 z m 32.463487,-3.2e-4 c 3.4375,-0.19527 9.0625,-0.19527 12.5,0 3.4375,0.19527 0.625,0.35504 -6.25,0.35504 -6.875,0 -9.6875,-0.15977 -6.25,-0.35504 z m 137.000002,0 c 3.4375,-0.19527 9.0625,-0.19527 12.5,0 3.4375,0.19527 0.625,0.35504 -6.25,0.35504 -6.875,0 -9.6875,-0.15977 -6.25,-0.35504 z m 34.53651,3.2e-4 c 3.18258,-0.19905 8.13258,-0.1972 11,0.004 2.86742,0.20131 0.26349,0.36417 -5.78651,0.36191 -6.05,-0.002 -8.39607,-0.16696 -5.21349,-0.36601 z"
           id="path1920" /><path
           style="fill:#737373"
           d="m 144.15048,331.67822 c 0.6875,-0.27741 1.8125,-0.27741 2.5,0 0.6875,0.27741 0.125,0.50439 -1.25,0.50439 -1.375,0 -1.9375,-0.22698 -1.25,-0.50439 z m -63.345014,-16.58772 -1.904988,-2.25 2.25,1.90499 c 2.114445,1.79022 2.705241,2.59501 1.904988,2.59501 -0.189757,0 -1.202257,-1.0125 -2.25,-2.25 z m 129.000004,-129 -1.90499,-2.25 2.25,1.90499 c 2.11444,1.79022 2.70524,2.59501 1.90499,2.59501 -0.18976,0 -1.20226,-1.0125 -2.25,-2.25 z m -64.65499,-16.41228 c 0.6875,-0.27741 1.8125,-0.27741 2.5,0 0.6875,0.27741 0.125,0.50438 -1.25,0.50438 -1.375,0 -1.9375,-0.22697 -1.25,-0.50438 z"
           id="path1918" /><path
           style="fill:#565656"
           d="m 141.21298,331.65739 c 0.72187,-0.28887 1.58437,-0.25335 1.91667,0.0789 0.33229,0.33229 -0.25834,0.56864 -1.3125,0.52522 -1.16495,-0.048 -1.4019,-0.28494 -0.60417,-0.60416 z m 7,0 c 0.72187,-0.28887 1.58437,-0.25335 1.91667,0.0789 0.33229,0.33229 -0.25834,0.56864 -1.3125,0.52522 -1.16495,-0.048 -1.4019,-0.28494 -0.60417,-0.60416 z m 60.1875,-14.69445 c 0,-0.20765 0.7875,-0.99515 1.75,-1.75 1.58606,-1.24387 1.62143,-1.2085 0.37756,0.37756 -1.30637,1.66575 -2.12756,2.19548 -2.12756,1.37244 z M 64.479425,254.75717 c 0.04798,-1.16495 0.284941,-1.4019 0.604167,-0.60417 0.288871,0.72187 0.253344,1.58437 -0.07895,1.91667 -0.332292,0.33229 -0.568641,-0.25834 -0.52522,-1.3125 z m 162.000005,-8 c 0.048,-1.16495 0.28494,-1.4019 0.60416,-0.60417 0.28887,0.72187 0.25335,1.58437 -0.0789,1.91667 -0.3323,0.33229 -0.56864,-0.25834 -0.52522,-1.3125 z M 80.900478,186.3405 c 0.995486,-1.1 2.034975,-2 2.309975,-2 0.275,0 -0.314489,0.9 -1.309975,2 -0.995486,1.1 -2.034975,2 -2.309975,2 -0.275,0 0.314489,-0.9 1.309975,-2 z m 61.312502,-16.68311 c 0.72187,-0.28888 1.58437,-0.25335 1.91667,0.079 0.33229,0.33229 -0.25834,0.56864 -1.3125,0.52522 -1.16495,-0.048 -1.4019,-0.28495 -0.60417,-0.60417 z m 7,0 c 0.72187,-0.28888 1.58437,-0.25335 1.91667,0.079 0.33229,0.33229 -0.25834,0.56864 -1.3125,0.52522 -1.16495,-0.048 -1.4019,-0.28495 -0.60417,-0.60417 z"
           id="path1916" /><path
           style="fill:#2f2f2f"
           d="m 143.16839,341.61577 c 1.79735,-0.22256 4.49735,-0.21797 6,0.0102 1.50265,0.22818 0.0321,0.41027 -3.26791,0.40466 -3.3,-0.006 -4.52944,-0.1923 -2.73209,-0.41486 z m 97.23209,-73.65283 c 0,-0.20765 0.7875,-0.99515 1.75,-1.75 1.58606,-1.24387 1.62143,-1.2085 0.37756,0.37756 -1.30637,1.66575 -2.12756,2.19548 -2.12756,1.37244 z m 7,-7 c 0,-0.20765 0.7875,-0.99515 1.75,-1.75 1.58606,-1.24387 1.62143,-1.2085 0.37756,0.37756 -1.30637,1.66575 -2.12756,2.19548 -2.12756,1.37244 z m 4,-4 c 0,-0.20765 0.7875,-0.99515 1.75,-1.75 1.58606,-1.24387 1.62143,-1.2085 0.37756,0.37756 -1.30637,1.66575 -2.12756,2.19548 -2.12756,1.37244 z M 54.595427,253.8405 c 0.02038,-1.65 0.244498,-2.20394 0.498042,-1.23097 0.253543,0.97297 0.236869,2.32297 -0.03705,3 -0.273927,0.67703 -0.481372,-0.11903 -0.460992,-1.76903 z m 182.000003,-6 c 0.0204,-1.65 0.2445,-2.20394 0.49804,-1.23097 0.25354,0.97297 0.23687,2.32297 -0.0371,3 -0.27393,0.67703 -0.48137,-0.11903 -0.46099,-1.76903 z M 37.400478,246.96294 c 0,-0.20765 0.7875,-0.99515 1.75,-1.75 1.586056,-1.24387 1.621426,-1.2085 0.377555,0.37756 -1.30637,1.66575 -2.127555,2.19548 -2.127555,1.37244 z m 4,-4 c 0,-0.20765 0.7875,-0.99515 1.75,-1.75 1.586056,-1.24387 1.621426,-1.2085 0.377555,0.37756 -1.30637,1.66575 -2.127555,2.19548 -2.127555,1.37244 z m 7,-7 c 0,-0.20765 0.7875,-0.99515 1.75,-1.75 1.586056,-1.24387 1.621426,-1.2085 0.377555,0.37756 -1.306369,1.66575 -2.127555,2.19548 -2.127555,1.37244 z m 94.767912,-76.34717 c 1.79735,-0.22256 4.49735,-0.21797 6,0.0102 1.50265,0.22817 0.0321,0.41027 -3.26791,0.40466 -3.3,-0.006 -4.52944,-0.19231 -2.73209,-0.41487 z"
           id="path1914" /><path
           style="fill:#000000"
           d="M 123.54071,338.82386 C 85.881794,329.09383 58.390971,296.77377 55.508402,258.8405 l -0.607924,-8 -10.149763,-0.28388 -10.149764,-0.28387 13.566841,-13.5355 13.566841,-13.5355 13.34981,13.31938 13.349809,13.31937 -12.016887,0.28078 c -13.784461,0.32208 -12.767067,-0.74842 -10.955834,11.52767 4.599543,31.17456 25.363247,56.13221 55.119729,66.25304 23.70625,8.06301 50.15246,4.16427 71.81922,-10.58772 6.7592,-4.60205 17.43907,-15.6856 21.87493,-22.70176 l 3.30532,-5.22799 3.90217,2.22799 c 2.1462,1.22539 3.90564,2.60173 3.90988,3.05852 0.0153,1.65211 -7.53551,12.14223 -12.95216,17.99402 -11.8671,12.82041 -27.08836,21.77352 -44.54657,26.20215 -13.5765,3.44397 -30.92173,3.42702 -44.35334,-0.0433 z m 92.81965,-74.02357 -13.43209,-13.45979 h 12.2361 c 14.06084,0 13.00166,1.07182 11.17506,-11.30845 -4.5935,-31.1336 -25.3687,-56.13406 -55.0306,-66.22272 -23.80083,-8.09519 -50.2067,-4.21834 -71.908352,10.5574 -6.759201,4.60205 -17.439068,15.6856 -21.874928,22.70176 l -3.305317,5.22799 -3.902176,-2.22799 c -2.146196,-1.22539 -3.905641,-2.60173 -3.909877,-3.05852 -0.01532,-1.65211 7.535509,-12.14223 12.952161,-17.99402 29.781229,-32.17365 80.210289,-38.24605 116.665789,-14.04827 22.82388,15.14963 38.23381,41.1245 40.26643,67.87282 l 0.60792,8 10.12538,0.28361 10.12538,0.2836 -12.19436,12.2164 c -6.7069,6.71901 -12.86263,12.7608 -13.6794,13.42618 -1.23785,1.00842 -3.72085,-1.03063 -14.91712,-12.25 z"
           id="path1912" /></g><text
         xml:space="preserve"
         style="font-size:26.6667px;font-family:'MS Reference Sans Serif';-inkscape-font-specification:'MS Reference Sans Serif, Normal';opacity:0.637566;fill:#000000;fill-opacity:1;stroke:none;stroke-opacity:1"
         x="287.06174"
         y="176.36694"
         id="text2032"><tspan
           sodipodi:role="line"
           id="tspan2030"
           x="287.06174"
           y="176.36694">fx1();</tspan><tspan
           sodipodi:role="line"
           x="287.06174"
           y="209.70032"
           id="tspan2034">fx2();</tspan><tspan
           sodipodi:role="line"
           x="287.06174"
           y="243.03369"
           id="tspan2036">fx3();</tspan></text><text
         xml:space="preserve"
         style="font-size:18.6667px;font-family:'MS Reference Sans Serif';-inkscape-font-specification:'MS Reference Sans Serif, Normal';opacity:0.941176;fill:#ffffff;fill-opacity:1;stroke:none;stroke-opacity:1"
         x="232.89914"
         y="80.905365"
         id="text2459"><tspan
           sodipodi:role="line"
           id="tspan2457"
           x="232.89914"
           y="80.905365">条件を満たす限り</tspan></text><ellipse
         style="opacity:0.941176;fill:#00ffff;fill-opacity:1;stroke:none;stroke-opacity:1"
         id="path4435"
         cx="446.16434"
         cy="98.169701"
         rx="70.411369"
         ry="26.742779" /><text
         xml:space="preserve"
         style="font-style:normal;font-variant:normal;font-weight:normal;font-stretch:normal;font-size:32px;font-family:'Rockwell Extra Bold';-inkscape-font-specification:'Rockwell Extra Bold, Normal';font-variant-ligatures:normal;font-variant-caps:normal;font-variant-numeric:normal;font-variant-east-asian:normal;opacity:0.941176;fill:#0000ff;fill-opacity:1;stroke:none;stroke-opacity:1"
         x="388.44559"
         y="109.08376"
         id="text4019"><tspan
           sodipodi:role="line"
           id="tspan4017"
           x="388.44559"
           y="109.08376">LOOP!</tspan></text></g></g></svg>
